<?xml version="1.0" standalone="no"?>
<!DOCTYPE svg PUBLIC "-//W3C//DTD SVG 20010904//EN"
 "http://www.w3.org/TR/2001/REC-SVG-20010904/DTD/svg10.dtd">
<svg version="1.0" xmlns="http://www.w3.org/2000/svg"
 width="32.000000pt" height="32.000000pt" viewBox="0 0 32.000000 32.000000"
 preserveAspectRatio="xMidYMid meet">

<g transform="translate(0.000000,32.000000) scale(0.100000,-0.100000)"
fill="#000000" stroke="none">
<path d="M1 258 c1 -35 3 -55 6 -45 5 20 8 20 33 7 26 -14 15 -50 -16 -50 -23
0 -24 -2 -24 -85 l0 -85 85 0 c83 0 85 1 85 24 0 31 33 40 49 13 10 -16 10
-21 -1 -28 -8 -5 9 -9 45 -9 l57 0 -1 58 c0 31 -3 51 -6 45 -7 -19 -43 4 -43
27 0 15 7 20 25 20 25 0 25 1 25 85 l0 85 -85 0 c-83 0 -85 -1 -85 -24 0 -31
-36 -42 -50 -16 -13 25 -13 28 8 33 9 3 -11 5 -45 6 l-63 1 1 -62z m273 13
c15 -16 15 -19 1 -31 -13 -11 -19 -11 -31 2 -8 8 -12 22 -8 31 8 22 17 21 38
-2z m-50 -47 c58 -58 17 -154 -66 -154 -54 0 -88 35 -88 90 0 84 95 123 154
64z m-137 -154 c2 -8 -1 -22 -7 -30 -8 -13 -13 -12 -32 8 -20 19 -21 24 -8 32
20 13 44 8 47 -10z"/>
<path d="M136 192 c-30 -32 -27 -52 8 -68 19 -9 28 -8 46 6 25 19 22 46 -8 74
-17 15 -20 14 -46 -12z"/>
</g>
</svg>
