<?xml version="1.0" standalone="no"?>
<!DOCTYPE svg PUBLIC "-//W3C//DTD SVG 20010904//EN"
 "http://www.w3.org/TR/2001/REC-SVG-20010904/DTD/svg10.dtd">
<svg version="1.0" xmlns="http://www.w3.org/2000/svg"
 width="920.000000pt" height="800.000000pt" viewBox="0 0 920.000000 800.000000"
 preserveAspectRatio="xMidYMid meet">

<g transform="translate(0.000000,800.000000) scale(0.100000,-0.100000)"
fill="#000000" stroke="none">
<path d="M1927 7986 c-91 -33 -164 -109 -187 -197 -7 -24 -9 -1367 -8 -3810
l3 -3774 30 -53 c32 -59 66 -91 129 -125 l41 -22 2660 0 2660 0 41 22 c63 34
97 66 129 125 l30 53 0 3795 0 3795 -22 41 c-34 64 -71 103 -127 132 l-51 27
-2645 2 c-2207 2 -2651 0 -2683 -11z m5337 -28 c55 -16 138 -99 154 -154 18
-60 18 -7548 0 -7608 -16 -55 -99 -138 -154 -154 -60 -18 -5278 -18 -5338 0
-55 16 -138 99 -154 154 -18 60 -18 7548 0 7608 15 51 99 137 148 153 53 17
5287 18 5344 1z"/>
<path d="M2112 7345 c-158 -241 -182 -281 -182 -316 l0 -39 165 0 165 0 0 -60
0 -60 -30 0 c-28 0 -30 -3 -30 -35 l0 -35 100 0 100 0 0 35 c0 31 -3 35 -25
35 -24 0 -25 3 -25 60 l0 60 50 0 50 0 0 45 0 45 -50 0 -50 0 -2 268 -3 267
-25 3 c-23 3 -43 -23 -208 -273z m150 -100 l-3 -165 -110 0 -109 0 110 165
c61 91 111 165 113 165 1 0 1 -74 -1 -165z"/>
<path d="M3162 7273 c-28 -37 -91 -117 -141 -178 -304 -368 -351 -434 -398
-563 -79 -215 -1 -427 176 -479 140 -40 273 55 303 216 11 59 31 80 40 43 15
-57 -36 -286 -92 -408 -16 -37 -30 -68 -30 -70 0 -2 79 -4 175 -4 96 0 175 2
175 4 0 2 -16 42 -36 88 -50 116 -80 229 -89 326 -7 77 -6 84 11 80 12 -2 21
-20 30 -60 35 -153 124 -241 244 -241 150 0 268 128 278 304 9 151 -48 273
-252 539 -176 231 -211 279 -269 365 -33 50 -63 94 -67 98 -4 4 -30 -23 -58
-60z"/>
<path d="M6010 7270 c-29 -40 -125 -158 -212 -263 -186 -223 -246 -306 -294
-402 -72 -149 -82 -276 -29 -394 112 -249 427 -210 477 58 11 59 31 80 40 43
15 -57 -36 -286 -92 -408 -16 -37 -30 -68 -30 -70 0 -2 79 -4 175 -4 96 0 175
2 175 4 0 2 -16 42 -36 88 -50 116 -80 229 -88 326 -7 76 -6 83 10 80 12 -2
21 -20 30 -60 35 -153 124 -241 244 -241 150 0 268 128 278 304 9 161 -48 276
-308 614 -68 88 -157 210 -198 270 -42 61 -78 114 -82 118 -4 4 -31 -24 -60
-63z"/>
<path d="M2157 6637 c-15 -29 -56 -99 -92 -157 -103 -164 -118 -251 -54 -304
42 -36 87 -35 124 4 15 16 32 27 36 24 14 -8 -2 -67 -32 -117 -16 -27 -29 -50
-29 -53 0 -2 36 -4 80 -4 44 0 80 2 80 4 0 2 -13 30 -30 61 -16 31 -30 71 -30
88 l0 31 33 -32 c51 -49 111 -41 142 18 20 38 19 123 -1 163 -16 31 -181 305
-193 319 -4 4 -19 -16 -34 -45z"/>
<path d="M3050 2178 c79 -169 122 -428 71 -428 -5 0 -11 23 -15 51 -19 144
-129 246 -256 237 -102 -8 -180 -65 -229 -168 -22 -47 -26 -68 -26 -150 1
-103 9 -138 62 -245 47 -94 100 -167 277 -380 83 -99 180 -219 217 -267 l66
-86 59 90 c32 51 124 178 206 284 280 366 337 478 326 648 -10 158 -114 279
-252 293 -128 13 -229 -74 -267 -234 -6 -26 -18 -54 -25 -62 -22 -24 -27 8
-15 108 12 94 44 203 92 310 16 35 29 68 29 72 0 5 -81 9 -179 9 l-180 0 39
-82z"/>
<path d="M5884 2213 c90 -174 144 -463 87 -463 -5 0 -11 24 -15 53 -10 72 -40
130 -93 176 -55 49 -100 65 -167 59 -174 -15 -285 -196 -247 -403 14 -74 76
-207 139 -294 25 -36 112 -145 193 -241 80 -96 178 -216 216 -267 l70 -91 59
90 c32 51 124 178 205 283 227 295 291 400 319 524 16 70 8 184 -17 242 -61
136 -208 210 -328 165 -64 -25 -126 -98 -153 -180 -12 -37 -22 -73 -22 -80 0
-7 -7 -19 -15 -26 -24 -20 -28 8 -16 107 11 90 47 209 95 317 14 32 26 62 26
67 0 5 -81 9 -180 9 l-180 0 24 -47z"/>
<path d="M6920 1913 c51 -80 55 -161 5 -105 -61 69 -165 24 -165 -71 0 -64 21
-115 99 -242 38 -61 79 -131 91 -155 l22 -44 15 30 c9 16 52 87 96 158 106
170 122 216 96 283 -28 76 -98 97 -151 46 -15 -14 -31 -24 -34 -20 -10 10 14
85 42 129 l24 38 -85 0 -85 0 30 -47z"/>
<path d="M6790 1165 c0 -31 3 -35 25 -35 24 0 25 -3 25 -60 l0 -60 -50 0 -50
0 0 -45 0 -45 50 0 50 0 2 -267 3 -268 27 0 c24 0 45 28 207 273 158 238 181
278 181 313 l0 39 -165 0 -165 0 0 60 0 60 30 0 c28 0 30 3 30 35 l0 35 -100
0 -100 0 0 -35z m250 -410 c-61 -91 -111 -165 -113 -165 -1 0 -1 74 1 165 l3
165 110 0 109 0 -110 -165z"/>
</g>
</svg>
