<?xml version="1.0" standalone="no"?>
<!DOCTYPE svg PUBLIC "-//W3C//DTD SVG 20010904//EN"
 "http://www.w3.org/TR/2001/REC-SVG-20010904/DTD/svg10.dtd">
<svg version="1.0" xmlns="http://www.w3.org/2000/svg"
 width="32.000000pt" height="32.000000pt" viewBox="0 0 32.000000 32.000000"
 preserveAspectRatio="xMidYMid meet">

<g transform="translate(0.000000,32.000000) scale(0.100000,-0.100000)"
fill="#000000" stroke="none">
<path d="M150 296 c0 -34 -30 -43 -51 -15 l-17 23 -33 -33 -33 -33 23 -17 c28
-21 19 -51 -15 -51 -27 0 -29 -12 -13 -59 10 -28 15 -31 39 -26 29 6 61 -17
40 -30 -20 -12 -10 -33 21 -44 47 -16 59 -14 59 13 0 32 30 38 52 11 17 -20
17 -20 50 13 33 33 33 33 13 50 -27 22 -21 52 11 52 19 0 24 5 24 25 0 13 -5
35 -11 49 -10 21 -14 23 -36 13 -17 -8 -27 -7 -35 1 -8 8 -9 18 -1 35 10 22 8
26 -13 36 -14 6 -36 11 -49 11 -20 0 -25 -5 -25 -24z m74 -72 c36 -37 36 -91
0 -128 -58 -57 -154 -17 -154 64 0 81 96 121 154 64z"/>
<path d="M136 192 c-30 -32 -27 -52 8 -68 19 -9 28 -8 46 6 25 19 22 46 -8 74
-17 15 -20 14 -46 -12z"/>
</g>
</svg>
